<svg width="25" height="19" viewBox="0 0 25 19" fill="none" xmlns="http://www.w3.org/2000/svg">
    <path fill-rule="evenodd" clip-rule="evenodd" d="M0 0.75C0 0.335786 0.335786 0 0.75 0H24.25C24.6642 0 25 0.335786 25 0.75C25 1.16421 24.6642 1.5 24.25 1.5H0.749999C0.335786 1.5 0 1.16421 0 0.75ZM0 9.63877C0 9.22456 0.335786 8.88877 0.75 8.88877H24.25C24.6642 8.88877 25 9.22456 25 9.63877C25 10.053 24.6642 10.3888 24.25 10.3888H0.749999C0.335786 10.3888 0 10.053 0 9.63877ZM0.75 17.5C0.335786 17.5 0 17.8358 0 18.25C0 18.6642 0.335786 19 0.749999 19H24.25C24.6642 19 25 18.6642 25 18.25C25 17.8358 24.6642 17.5 24.25 17.5H0.75Z" fill="#231F20"></path>
</svg>