<svg width="29" height="30" viewBox="0 0 29 30" fill="none" xmlns="http://www.w3.org/2000/svg">
    <mask id="path-1-inside-1_4458_92763" fill="white">
        <path fill-rule="evenodd" clip-rule="evenodd" d="M20.3317 10.9159C20.3317 16.1161 16.1161 20.3317 10.9159 20.3317C5.71564 20.3317 1.50001 16.1161 1.50001 10.9159C1.50001 5.71564 5.71564 1.50001 10.9159 1.50001C16.1161 1.50001 20.3317 5.71564 20.3317 10.9159ZM17.272 19.7914C15.4819 21.0756 13.2872 21.8318 10.9159 21.8318C4.8872 21.8318 0 16.9445 0 10.9159C0 4.8872 4.8872 0 10.9159 0C16.9445 0 21.8318 4.8872 21.8318 10.9159C21.8318 14.0315 20.5265 16.8422 18.433 18.831L28.5413 28.9393L27.4806 30L17.272 19.7914Z"></path>
    </mask>
    <path fill-rule="evenodd" clip-rule="evenodd" d="M20.3317 10.9159C20.3317 16.1161 16.1161 20.3317 10.9159 20.3317C5.71564 20.3317 1.50001 16.1161 1.50001 10.9159C1.50001 5.71564 5.71564 1.50001 10.9159 1.50001C16.1161 1.50001 20.3317 5.71564 20.3317 10.9159ZM17.272 19.7914C15.4819 21.0756 13.2872 21.8318 10.9159 21.8318C4.8872 21.8318 0 16.9445 0 10.9159C0 4.8872 4.8872 0 10.9159 0C16.9445 0 21.8318 4.8872 21.8318 10.9159C21.8318 14.0315 20.5265 16.8422 18.433 18.831L28.5413 28.9393L27.4806 30L17.272 19.7914Z" fill="#231F20"></path>
    <path d="M17.272 19.7914L18.3327 18.7307L17.4323 17.8303L16.3976 18.5726L17.272 19.7914ZM18.433 18.831L17.3999 17.7435L16.2841 18.8035L17.3723 19.8917L18.433 18.831ZM28.5413 28.9393L29.602 30L30.6626 28.9393L29.602 27.8787L28.5413 28.9393ZM27.4806 30L26.42 31.0607L27.4806 32.1213L28.5413 31.0607L27.4806 30ZM10.9159 21.8318C16.9445 21.8318 21.8318 16.9445 21.8318 10.9159H18.8317C18.8317 15.2877 15.2877 18.8317 10.9159 18.8317V21.8318ZM0 10.9159C0 16.9445 4.8872 21.8318 10.9159 21.8318V18.8317C6.54407 18.8317 3.00001 15.2877 3.00001 10.9159H0ZM10.9159 0C4.8872 0 0 4.8872 0 10.9159H3.00001C3.00001 6.54407 6.54407 3.00001 10.9159 3.00001V0ZM21.8318 10.9159C21.8318 4.8872 16.9445 0 10.9159 0V3.00001C15.2877 3.00001 18.8317 6.54407 18.8317 10.9159H21.8318ZM10.9159 23.3318C13.6111 23.3318 16.1098 22.4712 18.1464 21.0102L16.3976 18.5726C14.8539 19.6801 12.9632 20.3317 10.9159 20.3317V23.3318ZM-1.50001 10.9159C-1.50001 17.773 4.05877 23.3318 10.9159 23.3318V20.3317C5.71564 20.3317 1.50001 16.1161 1.50001 10.9159H-1.50001ZM10.9159 -1.50001C4.05877 -1.50001 -1.50001 4.05877 -1.50001 10.9159H1.50001C1.50001 5.71564 5.71564 1.50001 10.9159 1.50001V-1.50001ZM23.3318 10.9159C23.3318 4.05877 17.773 -1.50001 10.9159 -1.50001V1.50001C16.1161 1.50001 20.3317 5.71564 20.3317 10.9159H23.3318ZM19.4661 19.9185C21.8453 17.6583 23.3318 14.4594 23.3318 10.9159H20.3317C20.3317 13.6035 19.2077 16.0261 17.3999 17.7435L19.4661 19.9185ZM17.3723 19.8917L27.4806 30L29.602 27.8787L19.4937 17.7704L17.3723 19.8917ZM27.4806 27.8787L26.42 28.9393L28.5413 31.0607L29.602 30L27.4806 27.8787ZM28.5413 28.9393L18.3327 18.7307L16.2113 20.852L26.42 31.0607L28.5413 28.9393Z" fill="#231F20" mask="url(#path-1-inside-1_4458_92763)"></path>
</svg>